<svg width="299" height="199" viewBox="0 0 299 199" fill="none" xmlns="http://www.w3.org/2000/svg">
<rect width="299" height="199"/>
<path d="M249.5 105.5C249.5 154.181 211.365 193.5 164.5 193.5C117.635 193.5 79.5 154.181 79.5 105.5C79.5 56.8188 117.635 17.5 164.5 17.5C211.365 17.5 249.5 56.8188 249.5 105.5Z" stroke="black" stroke-width="5"/>
<path d="M111.651 123.994C111.651 124.306 111.537 124.994 111.307 126.056C111.078 127.119 110.839 128.525 110.589 130.275C110.359 132.025 110.245 133.879 110.245 135.837C110.245 137.358 110.307 138.754 110.432 140.025C110.557 141.275 110.766 142.567 111.057 143.9C111.37 145.212 111.807 146.369 112.37 147.369C112.953 148.369 113.662 149.275 114.495 150.087C115.328 150.879 116.37 151.494 117.62 151.931C118.87 152.348 120.297 152.556 121.901 152.556C123.38 152.556 124.766 152.389 126.057 152.056C127.349 151.723 128.328 151.358 128.995 150.962C129.682 150.546 130.307 150.171 130.87 149.837C131.453 149.504 131.859 149.337 132.089 149.337C132.589 149.337 132.839 149.598 132.839 150.119C132.839 150.431 132.703 150.869 132.432 151.431C132.182 151.994 131.724 152.65 131.057 153.4C130.391 154.15 129.578 154.848 128.62 155.494C127.682 156.139 126.412 156.681 124.807 157.119C123.203 157.577 121.443 157.806 119.526 157.806C116.484 157.806 113.922 157.348 111.839 156.431C109.755 155.514 108.12 154.139 106.932 152.306C105.766 150.473 104.932 148.358 104.432 145.962C103.953 143.567 103.714 140.702 103.714 137.369C103.714 135.014 103.859 132.889 104.151 130.994C104.443 129.098 104.797 127.744 105.214 126.931C105.734 125.889 106.547 124.983 107.651 124.212C108.776 123.421 109.797 123.025 110.714 123.025C111.339 123.025 111.651 123.348 111.651 123.994ZM132.214 115.744C132.214 116.598 131.443 117.577 129.901 118.681C129.276 119.202 128.568 119.462 127.776 119.462C127.589 119.462 127.412 119.452 127.245 119.431C127.078 119.389 126.891 119.337 126.682 119.275C126.474 119.192 126.307 119.129 126.182 119.087C126.057 119.046 125.849 118.962 125.557 118.837C125.287 118.712 125.089 118.619 124.964 118.556C122.755 117.619 120.714 117.15 118.839 117.15C115.089 117.15 111.443 118.712 107.901 121.837C107.797 121.921 107.641 122.046 107.432 122.212C107.224 122.379 107.057 122.514 106.932 122.619C106.828 122.702 106.693 122.806 106.526 122.931C106.38 123.035 106.245 123.119 106.12 123.181C106.016 123.223 105.922 123.244 105.839 123.244C105.359 123.244 105.12 122.983 105.12 122.462C105.12 121.796 105.682 120.754 106.807 119.337C108.724 116.962 110.932 115.15 113.432 113.9C115.953 112.65 119.016 112.025 122.62 112.025C125.391 112.025 127.922 112.587 130.214 113.712C130.609 113.9 130.891 114.046 131.057 114.15C131.245 114.233 131.484 114.431 131.776 114.744C132.068 115.056 132.214 115.389 132.214 115.744ZM151.464 123.869C156.214 123.869 159.703 125.275 161.932 128.087C164.182 130.879 165.307 135.004 165.307 140.462C165.307 142.15 165.089 143.962 164.651 145.9C164.234 147.817 163.662 149.525 162.932 151.025C162.141 152.608 161.172 153.952 160.026 155.056C158.88 156.16 157.953 156.712 157.245 156.712C156.807 156.712 156.589 156.514 156.589 156.119C156.589 155.994 156.662 155.827 156.807 155.619C156.953 155.41 157.151 155.098 157.401 154.681C157.651 154.244 157.87 153.744 158.057 153.181C158.912 150.848 159.339 147.546 159.339 143.275C159.339 140.921 159.172 138.879 158.839 137.15C158.526 135.4 157.995 133.848 157.245 132.494C156.516 131.139 155.495 130.119 154.182 129.431C152.87 128.723 151.266 128.369 149.37 128.369C146.745 128.369 144.037 129.327 141.245 131.244C141.141 131.327 140.984 131.442 140.776 131.587C140.568 131.712 140.401 131.817 140.276 131.9C140.172 131.983 140.057 132.056 139.932 132.119C139.807 132.181 139.703 132.212 139.62 132.212C139.328 132.212 139.182 132.035 139.182 131.681C139.182 131.452 139.297 131.119 139.526 130.681C139.776 130.244 139.984 129.921 140.151 129.712C143.193 125.817 146.964 123.869 151.464 123.869ZM143.839 139.587C143.839 141.046 143.87 142.296 143.932 143.337C143.995 144.379 144.109 145.462 144.276 146.587C144.464 147.712 144.734 148.65 145.089 149.4C145.464 150.15 145.922 150.837 146.464 151.462C147.026 152.087 147.734 152.556 148.589 152.869C149.443 153.16 150.443 153.306 151.589 153.306C152.568 153.306 153.422 153.171 154.151 152.9C154.901 152.629 155.328 152.494 155.432 152.494C155.87 152.494 156.089 152.723 156.089 153.181C156.089 154.119 155.412 155.129 154.057 156.212C152.724 157.275 151.078 157.806 149.12 157.806C147.307 157.806 145.724 157.504 144.37 156.9C143.037 156.296 141.964 155.504 141.151 154.525C140.339 153.546 139.682 152.317 139.182 150.837C138.703 149.358 138.38 147.869 138.214 146.369C138.047 144.869 137.964 143.171 137.964 141.275C137.964 140.212 138.068 139.098 138.276 137.931C138.484 136.744 138.766 135.837 139.12 135.212C139.557 134.462 140.255 133.775 141.214 133.15C142.193 132.525 143.026 132.212 143.714 132.212C144.234 132.212 144.495 132.525 144.495 133.15C144.495 133.254 144.38 134.056 144.151 135.556C143.943 137.056 143.839 138.4 143.839 139.587ZM184.589 123.869C189.339 123.869 192.828 125.275 195.057 128.087C197.307 130.879 198.432 135.004 198.432 140.462C198.432 142.15 198.214 143.962 197.776 145.9C197.359 147.817 196.787 149.525 196.057 151.025C195.266 152.608 194.297 153.952 193.151 155.056C192.005 156.16 191.078 156.712 190.37 156.712C189.932 156.712 189.714 156.514 189.714 156.119C189.714 155.994 189.787 155.827 189.932 155.619C190.078 155.41 190.276 155.098 190.526 154.681C190.776 154.244 190.995 153.744 191.182 153.181C192.037 150.848 192.464 147.546 192.464 143.275C192.464 140.921 192.297 138.879 191.964 137.15C191.651 135.4 191.12 133.848 190.37 132.494C189.641 131.139 188.62 130.119 187.307 129.431C185.995 128.723 184.391 128.369 182.495 128.369C179.87 128.369 177.162 129.327 174.37 131.244C174.266 131.327 174.109 131.442 173.901 131.587C173.693 131.712 173.526 131.817 173.401 131.9C173.297 131.983 173.182 132.056 173.057 132.119C172.932 132.181 172.828 132.212 172.745 132.212C172.453 132.212 172.307 132.035 172.307 131.681C172.307 131.452 172.422 131.119 172.651 130.681C172.901 130.244 173.109 129.921 173.276 129.712C176.318 125.817 180.089 123.869 184.589 123.869ZM176.964 139.587C176.964 141.046 176.995 142.296 177.057 143.337C177.12 144.379 177.234 145.462 177.401 146.587C177.589 147.712 177.859 148.65 178.214 149.4C178.589 150.15 179.047 150.837 179.589 151.462C180.151 152.087 180.859 152.556 181.714 152.869C182.568 153.16 183.568 153.306 184.714 153.306C185.693 153.306 186.547 153.171 187.276 152.9C188.026 152.629 188.453 152.494 188.557 152.494C188.995 152.494 189.214 152.723 189.214 153.181C189.214 154.119 188.537 155.129 187.182 156.212C185.849 157.275 184.203 157.806 182.245 157.806C180.432 157.806 178.849 157.504 177.495 156.9C176.162 156.296 175.089 155.504 174.276 154.525C173.464 153.546 172.807 152.317 172.307 150.837C171.828 149.358 171.505 147.869 171.339 146.369C171.172 144.869 171.089 143.171 171.089 141.275C171.089 140.212 171.193 139.098 171.401 137.931C171.609 136.744 171.891 135.837 172.245 135.212C172.682 134.462 173.38 133.775 174.339 133.15C175.318 132.525 176.151 132.212 176.839 132.212C177.359 132.212 177.62 132.525 177.62 133.15C177.62 133.254 177.505 134.056 177.276 135.556C177.068 137.056 176.964 138.4 176.964 139.587ZM205.495 148.306V117.025C205.495 116.15 205.714 115.452 206.151 114.931C206.693 114.285 207.432 113.702 208.37 113.181C209.307 112.639 210.078 112.369 210.682 112.369C211.412 112.369 211.776 112.817 211.776 113.712V148.306C211.776 149.056 211.516 149.556 210.995 149.806C210.495 150.035 209.714 150.15 208.651 150.15C207.484 150.15 206.662 150.035 206.182 149.806C205.724 149.556 205.495 149.056 205.495 148.306ZM206.776 151.712H227.964C228.859 151.712 229.307 152.035 229.307 152.681C229.307 152.973 229.089 153.504 228.651 154.275C228.234 155.046 227.745 155.692 227.182 156.212C226.724 156.629 225.964 156.837 224.901 156.837H206.776C205.922 156.837 205.495 156.389 205.495 155.494V153.056C205.495 152.16 205.922 151.712 206.776 151.712Z" fill="#0090CD"/>
<path d="M150.953 131.799C152.734 131.799 154.043 132.327 154.879 133.381C155.722 134.428 156.144 135.975 156.144 138.022C156.144 138.655 156.062 139.335 155.898 140.061C155.742 140.78 155.527 141.42 155.254 141.983C154.957 142.577 154.594 143.081 154.164 143.495C153.734 143.909 153.386 144.116 153.121 144.116C152.957 144.116 152.875 144.042 152.875 143.893C152.875 143.846 152.902 143.784 152.957 143.706C153.011 143.628 153.086 143.51 153.179 143.354C153.273 143.19 153.355 143.003 153.426 142.792C153.746 141.917 153.906 140.678 153.906 139.077C153.906 138.194 153.844 137.428 153.719 136.78C153.601 136.124 153.402 135.542 153.121 135.034C152.847 134.526 152.465 134.143 151.972 133.885C151.48 133.62 150.879 133.487 150.168 133.487C149.183 133.487 148.168 133.846 147.121 134.565C147.082 134.596 147.023 134.639 146.945 134.694C146.867 134.741 146.804 134.78 146.758 134.811C146.719 134.842 146.676 134.87 146.629 134.893C146.582 134.917 146.543 134.928 146.511 134.928C146.402 134.928 146.347 134.862 146.347 134.729C146.347 134.643 146.39 134.518 146.476 134.354C146.57 134.19 146.648 134.069 146.711 133.991C147.851 132.53 149.265 131.799 150.953 131.799ZM148.094 137.694C148.094 138.241 148.105 138.71 148.129 139.1C148.152 139.491 148.195 139.897 148.258 140.319C148.328 140.741 148.429 141.092 148.562 141.374C148.703 141.655 148.875 141.913 149.078 142.147C149.289 142.381 149.554 142.557 149.875 142.674C150.195 142.784 150.57 142.838 151 142.838C151.367 142.838 151.687 142.788 151.961 142.686C152.242 142.585 152.402 142.534 152.441 142.534C152.605 142.534 152.687 142.62 152.687 142.792C152.687 143.143 152.433 143.522 151.926 143.928C151.426 144.327 150.808 144.526 150.074 144.526C149.394 144.526 148.801 144.413 148.293 144.186C147.793 143.96 147.39 143.663 147.086 143.295C146.781 142.928 146.535 142.467 146.347 141.913C146.168 141.358 146.047 140.799 145.984 140.237C145.922 139.674 145.89 139.038 145.89 138.327C145.89 137.928 145.929 137.51 146.008 137.073C146.086 136.628 146.191 136.288 146.324 136.053C146.488 135.772 146.75 135.514 147.109 135.28C147.476 135.045 147.789 134.928 148.047 134.928C148.242 134.928 148.34 135.045 148.34 135.28C148.34 135.319 148.297 135.62 148.211 136.182C148.133 136.745 148.094 137.249 148.094 137.694ZM183.344 131.799C185.125 131.799 186.433 132.327 187.269 133.381C188.113 134.428 188.535 135.975 188.535 138.022C188.535 138.655 188.453 139.335 188.289 140.061C188.133 140.78 187.918 141.42 187.644 141.983C187.347 142.577 186.984 143.081 186.554 143.495C186.125 143.909 185.777 144.116 185.511 144.116C185.347 144.116 185.265 144.042 185.265 143.893C185.265 143.846 185.293 143.784 185.347 143.706C185.402 143.628 185.476 143.51 185.57 143.354C185.664 143.19 185.746 143.003 185.816 142.792C186.136 141.917 186.297 140.678 186.297 139.077C186.297 138.194 186.234 137.428 186.109 136.78C185.992 136.124 185.793 135.542 185.511 135.034C185.238 134.526 184.855 134.143 184.363 133.885C183.871 133.62 183.269 133.487 182.558 133.487C181.574 133.487 180.558 133.846 179.511 134.565C179.472 134.596 179.414 134.639 179.336 134.694C179.258 134.741 179.195 134.78 179.148 134.811C179.109 134.842 179.066 134.87 179.019 134.893C178.972 134.917 178.933 134.928 178.902 134.928C178.793 134.928 178.738 134.862 178.738 134.729C178.738 134.643 178.781 134.518 178.867 134.354C178.961 134.19 179.039 134.069 179.101 133.991C180.242 132.53 181.656 131.799 183.344 131.799ZM180.484 137.694C180.484 138.241 180.496 138.71 180.519 139.1C180.543 139.491 180.586 139.897 180.648 140.319C180.719 140.741 180.82 141.092 180.953 141.374C181.094 141.655 181.265 141.913 181.469 142.147C181.679 142.381 181.945 142.557 182.265 142.674C182.586 142.784 182.961 142.838 183.39 142.838C183.758 142.838 184.078 142.788 184.351 142.686C184.633 142.585 184.793 142.534 184.832 142.534C184.996 142.534 185.078 142.62 185.078 142.792C185.078 143.143 184.824 143.522 184.316 143.928C183.816 144.327 183.199 144.526 182.465 144.526C181.785 144.526 181.191 144.413 180.683 144.186C180.183 143.96 179.781 143.663 179.476 143.295C179.172 142.928 178.926 142.467 178.738 141.913C178.558 141.358 178.437 140.799 178.375 140.237C178.312 139.674 178.281 139.038 178.281 138.327C178.281 137.928 178.32 137.51 178.398 137.073C178.476 136.628 178.582 136.288 178.715 136.053C178.879 135.772 179.14 135.514 179.5 135.28C179.867 135.045 180.179 134.928 180.437 134.928C180.633 134.928 180.73 135.045 180.73 135.28C180.73 135.319 180.687 135.62 180.601 136.182C180.523 136.745 180.484 137.249 180.484 137.694Z" fill="black"/>
<path d="M147.631 83.2396C149.412 83.2396 150.721 83.7669 151.556 84.8216C152.4 85.8685 152.822 87.4154 152.822 89.4622C152.822 90.0951 152.74 90.7747 152.576 91.5013C152.42 92.2201 152.205 92.8607 151.931 93.4232C151.635 94.0169 151.271 94.5208 150.842 94.9349C150.412 95.349 150.064 95.556 149.799 95.556C149.635 95.556 149.553 95.4818 149.553 95.3333C149.553 95.2865 149.58 95.224 149.635 95.1458C149.689 95.0677 149.763 94.9505 149.857 94.7943C149.951 94.6302 150.033 94.4427 150.103 94.2318C150.424 93.3568 150.584 92.1185 150.584 90.5169C150.584 89.6341 150.521 88.8685 150.396 88.2201C150.279 87.5638 150.08 86.9818 149.799 86.474C149.525 85.9661 149.142 85.5833 148.65 85.3255C148.158 85.0599 147.556 84.9271 146.846 84.9271C145.861 84.9271 144.846 85.2865 143.799 86.0052C143.76 86.0365 143.701 86.0794 143.623 86.1341C143.545 86.181 143.482 86.2201 143.435 86.2513C143.396 86.2826 143.353 86.3099 143.306 86.3333C143.26 86.3568 143.221 86.3685 143.189 86.3685C143.08 86.3685 143.025 86.3021 143.025 86.1693C143.025 86.0833 143.068 85.9583 143.154 85.7943C143.248 85.6302 143.326 85.5091 143.388 85.431C144.529 83.9701 145.943 83.2396 147.631 83.2396ZM144.771 89.1341C144.771 89.681 144.783 90.1497 144.806 90.5404C144.83 90.931 144.873 91.3372 144.935 91.7591C145.006 92.181 145.107 92.5326 145.24 92.8138C145.381 93.0951 145.553 93.3529 145.756 93.5872C145.967 93.8216 146.232 93.9974 146.553 94.1146C146.873 94.224 147.248 94.2786 147.678 94.2786C148.045 94.2786 148.365 94.2279 148.638 94.1263C148.92 94.0247 149.08 93.974 149.119 93.974C149.283 93.974 149.365 94.0599 149.365 94.2318C149.365 94.5833 149.111 94.9622 148.603 95.3685C148.103 95.7669 147.486 95.9661 146.752 95.9661C146.072 95.9661 145.478 95.8529 144.971 95.6263C144.471 95.3997 144.068 95.1029 143.763 94.7357C143.459 94.3685 143.213 93.9076 143.025 93.3529C142.846 92.7982 142.724 92.2396 142.662 91.6771C142.599 91.1146 142.568 90.4779 142.568 89.7669C142.568 89.3685 142.607 88.9505 142.685 88.513C142.763 88.0677 142.869 87.7279 143.002 87.4935C143.166 87.2122 143.428 86.9544 143.787 86.7201C144.154 86.4857 144.467 86.3685 144.724 86.3685C144.92 86.3685 145.017 86.4857 145.017 86.7201C145.017 86.7591 144.974 87.0599 144.888 87.6224C144.81 88.1849 144.771 88.6888 144.771 89.1341ZM180.021 83.2396C181.803 83.2396 183.111 83.7669 183.947 84.8216C184.791 85.8685 185.213 87.4154 185.213 89.4622C185.213 90.0951 185.131 90.7747 184.967 91.5013C184.81 92.2201 184.596 92.8607 184.322 93.4232C184.025 94.0169 183.662 94.5208 183.232 94.9349C182.803 95.349 182.455 95.556 182.189 95.556C182.025 95.556 181.943 95.4818 181.943 95.3333C181.943 95.2865 181.971 95.224 182.025 95.1458C182.08 95.0677 182.154 94.9505 182.248 94.7943C182.342 94.6302 182.424 94.4427 182.494 94.2318C182.814 93.3568 182.974 92.1185 182.974 90.5169C182.974 89.6341 182.912 88.8685 182.787 88.2201C182.67 87.5638 182.471 86.9818 182.189 86.474C181.916 85.9661 181.533 85.5833 181.041 85.3255C180.549 85.0599 179.947 84.9271 179.236 84.9271C178.252 84.9271 177.236 85.2865 176.189 86.0052C176.15 86.0365 176.092 86.0794 176.013 86.1341C175.935 86.181 175.873 86.2201 175.826 86.2513C175.787 86.2826 175.744 86.3099 175.697 86.3333C175.65 86.3568 175.611 86.3685 175.58 86.3685C175.471 86.3685 175.416 86.3021 175.416 86.1693C175.416 86.0833 175.459 85.9583 175.545 85.7943C175.638 85.6302 175.717 85.5091 175.779 85.431C176.92 83.9701 178.334 83.2396 180.021 83.2396ZM177.162 89.1341C177.162 89.681 177.174 90.1497 177.197 90.5404C177.221 90.931 177.263 91.3372 177.326 91.7591C177.396 92.181 177.498 92.5326 177.631 92.8138C177.771 93.0951 177.943 93.3529 178.146 93.5872C178.357 93.8216 178.623 93.9974 178.943 94.1146C179.263 94.224 179.638 94.2786 180.068 94.2786C180.435 94.2786 180.756 94.2279 181.029 94.1263C181.31 94.0247 181.471 93.974 181.51 93.974C181.674 93.974 181.756 94.0599 181.756 94.2318C181.756 94.5833 181.502 94.9622 180.994 95.3685C180.494 95.7669 179.877 95.9661 179.142 95.9661C178.463 95.9661 177.869 95.8529 177.361 95.6263C176.861 95.3997 176.459 95.1029 176.154 94.7357C175.849 94.3685 175.603 93.9076 175.416 93.3529C175.236 92.7982 175.115 92.2396 175.053 91.6771C174.99 91.1146 174.959 90.4779 174.959 89.7669C174.959 89.3685 174.998 88.9505 175.076 88.513C175.154 88.0677 175.26 87.7279 175.392 87.4935C175.556 87.2122 175.818 86.9544 176.178 86.7201C176.545 86.4857 176.857 86.3685 177.115 86.3685C177.31 86.3685 177.408 86.4857 177.408 86.7201C177.408 86.7591 177.365 87.0599 177.279 87.6224C177.201 88.1849 177.162 88.6888 177.162 89.1341Z" fill="black"/>
<path d="M105.939 98.4867V67.2054C105.939 66.3304 106.158 65.6325 106.596 65.1117C107.137 64.4659 107.877 63.8825 108.814 63.3617C109.752 62.82 110.523 62.5492 111.127 62.5492C111.856 62.5492 112.221 62.9971 112.221 63.8929V98.4867C112.221 99.2367 111.96 99.7367 111.439 99.9867C110.939 100.216 110.158 100.33 109.096 100.33C107.929 100.33 107.106 100.216 106.627 99.9867C106.169 99.7367 105.939 99.2367 105.939 98.4867ZM107.221 101.893H128.408C129.304 101.893 129.752 102.216 129.752 102.862C129.752 103.153 129.533 103.685 129.096 104.455C128.679 105.226 128.189 105.872 127.627 106.393C127.169 106.81 126.408 107.018 125.346 107.018H107.221C106.367 107.018 105.939 106.57 105.939 105.674V103.237C105.939 102.341 106.367 101.893 107.221 101.893ZM147.408 74.0492C152.158 74.0492 155.648 75.4554 157.877 78.2679C160.127 81.0596 161.252 85.1846 161.252 90.6429C161.252 92.3304 161.033 94.1429 160.596 96.0804C160.179 97.9971 159.606 99.7054 158.877 101.205C158.085 102.789 157.117 104.133 155.971 105.237C154.825 106.341 153.898 106.893 153.189 106.893C152.752 106.893 152.533 106.695 152.533 106.299C152.533 106.174 152.606 106.008 152.752 105.799C152.898 105.591 153.096 105.278 153.346 104.862C153.596 104.424 153.814 103.924 154.002 103.362C154.856 101.028 155.283 97.7263 155.283 93.4554C155.283 91.1013 155.117 89.0596 154.783 87.3304C154.471 85.5804 153.939 84.0284 153.189 82.6742C152.46 81.32 151.439 80.2992 150.127 79.6117C148.814 78.9034 147.21 78.5492 145.314 78.5492C142.689 78.5492 139.981 79.5075 137.189 81.4242C137.085 81.5075 136.929 81.6221 136.721 81.7679C136.512 81.8929 136.346 81.9971 136.221 82.0804C136.117 82.1638 136.002 82.2367 135.877 82.2992C135.752 82.3617 135.648 82.3929 135.564 82.3929C135.273 82.3929 135.127 82.2159 135.127 81.8617C135.127 81.6325 135.242 81.2992 135.471 80.8617C135.721 80.4242 135.929 80.1013 136.096 79.8929C139.137 75.9971 142.908 74.0492 147.408 74.0492ZM139.783 89.7679C139.783 91.2263 139.814 92.4763 139.877 93.5179C139.939 94.5596 140.054 95.6429 140.221 96.7679C140.408 97.8929 140.679 98.8304 141.033 99.5804C141.408 100.33 141.867 101.018 142.408 101.643C142.971 102.268 143.679 102.737 144.533 103.049C145.387 103.341 146.387 103.487 147.533 103.487C148.512 103.487 149.367 103.351 150.096 103.08C150.846 102.81 151.273 102.674 151.377 102.674C151.814 102.674 152.033 102.903 152.033 103.362C152.033 104.299 151.356 105.31 150.002 106.393C148.669 107.455 147.023 107.987 145.064 107.987C143.252 107.987 141.669 107.685 140.314 107.08C138.981 106.476 137.908 105.685 137.096 104.705C136.283 103.726 135.627 102.497 135.127 101.018C134.648 99.5388 134.325 98.0492 134.158 96.5492C133.992 95.0492 133.908 93.3513 133.908 91.4554C133.908 90.3929 134.012 89.2784 134.221 88.1117C134.429 86.9242 134.71 86.0179 135.064 85.3929C135.502 84.6429 136.2 83.9554 137.158 83.3304C138.137 82.7054 138.971 82.3929 139.658 82.3929C140.179 82.3929 140.439 82.7054 140.439 83.3304C140.439 83.4346 140.325 84.2367 140.096 85.7367C139.887 87.2367 139.783 88.5804 139.783 89.7679ZM180.533 74.0492C185.283 74.0492 188.773 75.4554 191.002 78.2679C193.252 81.0596 194.377 85.1846 194.377 90.6429C194.377 92.3304 194.158 94.1429 193.721 96.0804C193.304 97.9971 192.731 99.7054 192.002 101.205C191.21 102.789 190.242 104.133 189.096 105.237C187.95 106.341 187.023 106.893 186.314 106.893C185.877 106.893 185.658 106.695 185.658 106.299C185.658 106.174 185.731 106.008 185.877 105.799C186.023 105.591 186.221 105.278 186.471 104.862C186.721 104.424 186.939 103.924 187.127 103.362C187.981 101.028 188.408 97.7263 188.408 93.4554C188.408 91.1013 188.242 89.0596 187.908 87.3304C187.596 85.5804 187.064 84.0284 186.314 82.6742C185.585 81.32 184.564 80.2992 183.252 79.6117C181.939 78.9034 180.335 78.5492 178.439 78.5492C175.814 78.5492 173.106 79.5075 170.314 81.4242C170.21 81.5075 170.054 81.6221 169.846 81.7679C169.637 81.8929 169.471 81.9971 169.346 82.0804C169.242 82.1638 169.127 82.2367 169.002 82.2992C168.877 82.3617 168.773 82.3929 168.689 82.3929C168.398 82.3929 168.252 82.2159 168.252 81.8617C168.252 81.6325 168.367 81.2992 168.596 80.8617C168.846 80.4242 169.054 80.1013 169.221 79.8929C172.262 75.9971 176.033 74.0492 180.533 74.0492ZM172.908 89.7679C172.908 91.2263 172.939 92.4763 173.002 93.5179C173.064 94.5596 173.179 95.6429 173.346 96.7679C173.533 97.8929 173.804 98.8304 174.158 99.5804C174.533 100.33 174.992 101.018 175.533 101.643C176.096 102.268 176.804 102.737 177.658 103.049C178.512 103.341 179.512 103.487 180.658 103.487C181.637 103.487 182.492 103.351 183.221 103.08C183.971 102.81 184.398 102.674 184.502 102.674C184.939 102.674 185.158 102.903 185.158 103.362C185.158 104.299 184.481 105.31 183.127 106.393C181.794 107.455 180.148 107.987 178.189 107.987C176.377 107.987 174.794 107.685 173.439 107.08C172.106 106.476 171.033 105.685 170.221 104.705C169.408 103.726 168.752 102.497 168.252 101.018C167.773 99.5388 167.45 98.0492 167.283 96.5492C167.117 95.0492 167.033 93.3513 167.033 91.4554C167.033 90.3929 167.137 89.2784 167.346 88.1117C167.554 86.9242 167.835 86.0179 168.189 85.3929C168.627 84.6429 169.325 83.9554 170.283 83.3304C171.262 82.7054 172.096 82.3929 172.783 82.3929C173.304 82.3929 173.564 82.7054 173.564 83.3304C173.564 83.4346 173.45 84.2367 173.221 85.7367C173.012 87.2367 172.908 88.5804 172.908 89.7679ZM201.189 105.987V62.9554C201.189 61.8304 201.7 60.8929 202.721 60.1429C203.762 59.3929 204.762 59.0179 205.721 59.0179C206.45 59.0179 206.814 59.4659 206.814 60.3617V103.393C206.814 104.539 206.304 105.487 205.283 106.237C204.262 106.966 203.262 107.33 202.283 107.33C201.554 107.33 201.189 106.883 201.189 105.987ZM224.127 105.049C223.231 106.57 222.252 107.33 221.189 107.33C220.689 107.33 220.179 106.945 219.658 106.174L208.908 90.4554C208.554 89.9138 208.377 89.4763 208.377 89.1429C208.377 88.6221 208.658 88.0492 209.221 87.4242L218.439 77.1429C219.314 76.1638 220.106 75.57 220.814 75.3617C221.523 75.1534 222.71 75.0388 224.377 75.0179C225.023 75.0179 225.346 75.2784 225.346 75.7992C225.346 76.1742 225.044 76.6638 224.439 77.2679L215.158 86.8617C214.658 87.4034 214.408 87.8617 214.408 88.2367C214.408 88.5492 214.585 88.9346 214.939 89.3929L224.064 101.893C224.439 102.455 224.627 102.966 224.627 103.424C224.627 103.945 224.46 104.487 224.127 105.049Z" fill="#E20404"/>
</svg>
